<?xml version="1.0" standalone="no"?>
<!DOCTYPE svg PUBLIC "-//W3C//DTD SVG 20010904//EN"
 "http://www.w3.org/TR/2001/REC-SVG-20010904/DTD/svg10.dtd">
<svg version="1.0" xmlns="http://www.w3.org/2000/svg"
 width="150.000000pt" height="150.000000pt" viewBox="0 0 150.000000 150.000000"
 preserveAspectRatio="xMidYMid meet">
<metadata>
Created by potrace 1.11, written by Peter Selinger 2001-2013
</metadata>
<g transform="translate(0.000000,150.000000) scale(0.100000,-0.100000)"
fill="#000000" stroke="none">
<path d="M368 1415 c-124 -34 -245 -131 -298 -239 -119 -241 -53 -542 165
-761 141 -140 395 -281 626 -345 69 -19 71 -19 133 1 373 115 550 369 481 693
-46 218 -186 353 -376 364 -66 4 -78 7 -87 26 -22 49 -97 129 -164 176 -102
71 -198 100 -331 99 -56 0 -123 -7 -149 -14z m356 -287 c-3 -4 1 -8 8 -8 7 0
1 -12 -14 -25 -33 -29 -35 -41 -8 -57 20 -13 28 -48 11 -48 -5 0 -11 -9 -14
-19 -3 -15 -1 -18 12 -14 12 5 13 3 5 -6 -9 -10 -17 -10 -34 -1 -12 6 -34 8
-52 5 -20 -5 -33 -3 -38 5 -6 10 -20 11 -59 3 -28 -5 -48 -6 -45 -1 8 12 -10
10 -24 -4 -8 -8 -14 -5 -22 17 -12 31 -8 36 62 104 40 40 43 41 108 51 58 9
110 8 104 -2z m-11 -327 c37 -10 70 -21 73 -24 3 -3 -4 -27 -15 -53 -29 -65
-21 -84 34 -84 30 0 45 -5 49 -16 8 -21 7 -91 -3 -139 -8 -38 -9 -39 -10 -8
-1 33 -21 58 -21 26 0 -14 -9 -18 -42 -19 -24 -1 -52 -5 -62 -9 -13 -6 -21 -4
-24 3 -2 7 -12 12 -22 12 -30 0 -50 11 -50 29 0 9 -14 24 -31 33 -17 10 -27
23 -23 29 3 6 -6 3 -20 -7 -25 -16 -29 -16 -43 -1 -36 35 -22 177 19 204 12 7
106 41 118 42 3 0 36 -8 73 -18z"/>
</g>
</svg>
